# xmcd
#
# Track frame offsets: 
#        150
#        2925
#        27839
#        57466
#        84664
#        104246
#        122980
#        145557
#        166382
#        186777
#        221446
#
# Disc length: 2995 seconds
#
# Revision: 0
# Processed by: cddbd v1.5.2PL0 Copyright (c) Steve Scherf et al.
# Submitted via: ExactAudioCopy v0.95b3
#
DISCID=9c0bb10b
DTITLE=The Derek Trucks Band - The Derek Trucks Band FLAC
DYEAR=1900
DGENRE=
TTITLE0=Derek Trucks Band - Sarod
TTITLE1=Derek Trucks Band - Mr. PC
TTITLE2=Derek Trucks Band - 555 Lake
TTITLE3=Derek Trucks Band - D Minor Blues
TTITLE4=Derek Trucks Band - Footprints
TTITLE5=Derek Trucks Band - Out Of Madness
TTITLE6=Derek Trucks Band - Naima
TTITLE7=Derek Trucks Band - So What
TTITLE8=Derek Trucks Band - Evil Clown
TTITLE9=Derek Trucks Band - Egg 15
TTITLE10=Derek Trucks Band - Sarod [Outro]
EXTD=
EXTT0=
EXTT1=
EXTT2=
EXTT3=
EXTT4=
EXTT5=
EXTT6=
EXTT7=
EXTT8=
EXTT9=
EXTT10=
PLAYORDER=
